<svg xmlns="http://www.w3.org/2000/svg" xmlns:xlink="http://www.w3.org/1999/xlink" width="500" zoomAndPan="magnify" viewBox="0 0 375 89.999999" height="120" preserveAspectRatio="xMidYMid meet" version="1.0"><defs><g/><clipPath id="048bf16d45"><path d="M 79 0.441406 L 343.039062 0.441406 L 343.039062 86 L 79 86 Z M 79 0.441406 " clip-rule="nonzero"/></clipPath><clipPath id="dbd20d1823"><rect x="0" width="265" y="0" height="86"/></clipPath><clipPath id="00d0253aa6"><rect x="0" width="344" y="0" height="88"/></clipPath></defs><g transform="matrix(1, 0, 0, 1, 16, 1)"><g clip-path="url(#00d0253aa6)"><path fill="#ef8226" d="M 71.300781 13.871094 L 71.90625 13.734375 L 72.089844 13.890625 C 72.167969 15.714844 71.738281 19.144531 71.511719 21.023438 C 71.074219 24.664062 70.605469 28.128906 70.328125 31.796875 C 68.664062 30.625 67.035156 29.402344 65.441406 28.136719 C 58.3125 38.125 50.054688 47.382812 42.527344 57.074219 C 39.230469 61.316406 35.523438 65.566406 32.921875 70.261719 C 30.332031 74.933594 30.75 77.527344 32.667969 82.175781 C 32.246094 82.011719 31.363281 81.695312 31.023438 81.488281 C 30.410156 81.191406 29.800781 80.878906 29.199219 80.554688 C 25.390625 78.515625 21.660156 76.28125 17.902344 74.148438 C 14.121094 72 8.6875 69.484375 5.636719 66.523438 C 5.003906 65.910156 4.707031 65.042969 4.464844 64.214844 C 4.140625 63.105469 3.980469 61.972656 3.902344 60.824219 C 3.585938 56.183594 3.820312 51.382812 3.824219 46.726562 C 3.824219 42.875 3.5625 38.820312 3.9375 34.996094 C 4.054688 33.804688 4.253906 32.25 4.882812 31.222656 C 5.394531 30.394531 6.640625 29.578125 7.453125 29.035156 C 10.769531 26.828125 30.144531 15.515625 32.792969 14.898438 C 33.925781 14.636719 35.121094 14.609375 36.242188 14.945312 C 39.964844 16.074219 50.785156 22.925781 54.6875 25.359375 C 53.445312 26.925781 52.15625 28.457031 50.828125 29.953125 C 45.625 26.925781 40.097656 23.289062 34.707031 20.703125 C 32.265625 21.40625 27.476562 24.324219 25.160156 25.667969 L 13.171875 32.621094 C 16.78125 34.914062 30.265625 43.03125 33.417969 43.839844 C 36.507812 44.632812 41.203125 41.046875 43.75 39.535156 C 40.023438 43.675781 34.015625 51.914062 30.621094 56.53125 C 30.753906 54.574219 30.71875 52.609375 30.523438 50.65625 C 28.496094 47.859375 24.671875 46.105469 21.675781 44.375 L 9.96875 37.617188 L 9.921875 50.152344 C 9.894531 53.78125 9.660156 57.9375 10.320312 61.472656 C 10.726562 63.628906 15.65625 65.972656 17.578125 67.082031 L 27.53125 72.757812 C 27.394531 62.066406 34.921875 54.40625 41.058594 46.550781 C 47.117188 38.796875 53 30.855469 59.207031 23.222656 C 57.789062 22.003906 56.023438 20.722656 54.519531 19.578125 C 55.234375 19.273438 56.042969 18.980469 56.785156 18.738281 C 61.585938 17.167969 66.445312 15.226562 71.300781 13.871094 Z M 71.300781 13.871094 " fill-opacity="1" fill-rule="nonzero"/><path fill="#e45c13" d="M 71.300781 13.871094 L 71.90625 13.734375 L 72.089844 13.890625 C 72.167969 15.714844 71.738281 19.144531 71.511719 21.023438 C 71.074219 24.664062 70.605469 28.128906 70.328125 31.796875 C 68.664062 30.625 67.035156 29.402344 65.441406 28.136719 C 58.3125 38.125 50.054688 47.382812 42.527344 57.074219 C 39.230469 61.316406 35.523438 65.566406 32.921875 70.261719 C 30.332031 74.933594 30.75 77.527344 32.667969 82.175781 C 32.246094 82.011719 31.363281 81.695312 31.023438 81.488281 C 31.035156 80.875 29.769531 77.730469 29.542969 76.804688 C 27.839844 69.847656 32.90625 63.492188 36.847656 58.332031 C 39.414062 54.96875 42.003906 51.683594 44.597656 48.378906 L 64.617188 22.976562 C 65.90625 21.371094 71.070312 15.304688 71.300781 13.871094 Z M 71.300781 13.871094 " fill-opacity="1" fill-rule="nonzero"/><path fill="#e45c13" d="M 64.292969 33.355469 C 64.851562 33.96875 65.121094 34.988281 65.125 35.804688 C 65.171875 43.648438 65.175781 51.484375 65.269531 59.335938 C 65.148438 62.464844 65 65.941406 61.992188 67.765625 C 54.207031 72.492188 46.21875 77.277344 38.085938 81.371094 C 33.019531 83.917969 32.410156 78.601562 33.253906 74.828125 C 34.121094 71.347656 36.464844 68.277344 38.699219 65.574219 C 38.65625 68.488281 38.652344 71.402344 38.691406 74.316406 C 44.445312 71.394531 52.726562 66.773438 58.046875 63.042969 C 58.628906 62.589844 58.992188 61.578125 59.03125 60.867188 C 59.414062 53.929688 58.972656 46.753906 59.21875 39.808594 C 60.46875 37.972656 62.855469 35.144531 64.292969 33.355469 Z M 64.292969 33.355469 " fill-opacity="1" fill-rule="nonzero"/><g clip-path="url(#048bf16d45)"><g transform="matrix(1, 0, 0, 1, 79, -0.000000000000009548)"><g clip-path="url(#dbd20d1823)"><g fill="#ffffff" fill-opacity="1"><g transform="translate(0.434046, 67.924989)"><g><path d="M 35.953125 -37 C 33.460938 -38.53125 30.96875 -39.664062 28.46875 -40.40625 C 25.96875 -41.144531 23.722656 -41.515625 21.734375 -41.515625 C 19.328125 -41.515625 17.40625 -41.0625 15.96875 -40.15625 C 14.53125 -39.257812 13.8125 -37.976562 13.8125 -36.3125 C 13.8125 -34.832031 14.273438 -33.601562 15.203125 -32.625 C 16.128906 -31.65625 17.285156 -30.890625 18.671875 -30.328125 C 20.054688 -29.773438 22 -29.109375 24.5 -28.328125 C 27.789062 -27.304688 30.460938 -26.320312 32.515625 -25.375 C 34.578125 -24.425781 36.335938 -23.015625 37.796875 -21.140625 C 39.253906 -19.265625 39.984375 -16.800781 39.984375 -13.75 C 39.984375 -10.875 39.207031 -8.359375 37.65625 -6.203125 C 36.101562 -4.054688 33.9375 -2.40625 31.15625 -1.25 C 28.382812 -0.09375 25.21875 0.484375 21.65625 0.484375 C 17.90625 0.484375 14.296875 -0.207031 10.828125 -1.59375 C 7.359375 -2.976562 4.351562 -4.878906 1.8125 -7.296875 L 5.34375 -14.375 C 7.800781 -12.101562 10.5 -10.332031 13.4375 -9.0625 C 16.375 -7.789062 19.160156 -7.15625 21.796875 -7.15625 C 24.617188 -7.15625 26.835938 -7.695312 28.453125 -8.78125 C 30.078125 -9.863281 30.890625 -11.359375 30.890625 -13.265625 C 30.890625 -14.785156 30.414062 -16.03125 29.46875 -17 C 28.519531 -17.976562 27.328125 -18.753906 25.890625 -19.328125 C 24.460938 -19.910156 22.519531 -20.570312 20.0625 -21.3125 C 16.726562 -22.28125 14.054688 -23.226562 12.046875 -24.15625 C 10.035156 -25.082031 8.300781 -26.46875 6.84375 -28.3125 C 5.382812 -30.164062 4.65625 -32.597656 4.65625 -35.609375 C 4.65625 -38.335938 5.394531 -40.734375 6.875 -42.796875 C 8.351562 -44.859375 10.429688 -46.457031 13.109375 -47.59375 C 15.796875 -48.726562 18.878906 -49.296875 22.359375 -49.296875 C 25.410156 -49.296875 28.414062 -48.832031 31.375 -47.90625 C 34.34375 -46.976562 37.003906 -45.75 39.359375 -44.21875 Z M 35.953125 -37 "/></g></g></g><g fill="#ffffff" fill-opacity="1"><g transform="translate(43.186307, 67.924989)"><g><path d="M 51.15625 0 L 42.421875 0 L 37.765625 -10.96875 L 13.265625 -10.96875 L 8.609375 0 L 0.0625 0 L 21.515625 -48.59375 L 29.921875 -48.59375 Z M 25.484375 -39.84375 L 16.3125 -18.265625 L 34.640625 -18.265625 Z M 25.484375 -39.84375 "/></g></g></g><g fill="#ffffff" fill-opacity="1"><g transform="translate(94.405821, 67.924989)"><g><path d="M 6.390625 0 L 6.390625 -48.59375 L 14.578125 -48.59375 L 14.578125 0 Z M 6.390625 0 "/></g></g></g><g fill="#ffffff" fill-opacity="1"><g transform="translate(115.365566, 67.924989)"><g><path d="M 0.625 -41.234375 L 0.625 -48.59375 L 39.578125 -48.59375 L 39.578125 -41.234375 L 24.15625 -41.234375 L 24.15625 0 L 15.96875 0 L 15.96875 -41.234375 Z M 0.625 -41.234375 "/></g></g></g><g fill="#ffffff" fill-opacity="1"><g transform="translate(152.634551, 67.924989)"><g><path d="M 28.109375 -49.15625 C 32.878906 -49.15625 37.226562 -48.066406 41.15625 -45.890625 C 45.09375 -43.710938 48.195312 -40.722656 50.46875 -36.921875 C 52.738281 -33.128906 53.875 -28.941406 53.875 -24.359375 C 53.875 -19.734375 52.738281 -15.523438 50.46875 -11.734375 C 48.195312 -7.941406 45.09375 -4.929688 41.15625 -2.703125 C 37.226562 -0.484375 32.878906 0.625 28.109375 0.625 C 23.347656 0.625 19 -0.484375 15.0625 -2.703125 C 11.125 -4.929688 8.019531 -7.941406 5.75 -11.734375 C 3.488281 -15.523438 2.359375 -19.734375 2.359375 -24.359375 C 2.359375 -28.941406 3.488281 -33.128906 5.75 -36.921875 C 8.019531 -40.722656 11.125 -43.710938 15.0625 -45.890625 C 19 -48.066406 23.347656 -49.15625 28.109375 -49.15625 Z M 28.1875 -41.71875 C 25.039062 -41.71875 22.125 -40.941406 19.4375 -39.390625 C 16.75 -37.847656 14.617188 -35.753906 13.046875 -33.109375 C 11.472656 -30.472656 10.6875 -27.554688 10.6875 -24.359375 C 10.6875 -21.171875 11.484375 -18.234375 13.078125 -15.546875 C 14.679688 -12.867188 16.8125 -10.738281 19.46875 -9.15625 C 22.132812 -7.582031 25.039062 -6.796875 28.1875 -6.796875 C 31.332031 -6.796875 34.222656 -7.582031 36.859375 -9.15625 C 39.492188 -10.738281 41.585938 -12.867188 43.140625 -15.546875 C 44.691406 -18.234375 45.46875 -21.171875 45.46875 -24.359375 C 45.46875 -27.554688 44.691406 -30.472656 43.140625 -33.109375 C 41.585938 -35.753906 39.492188 -37.847656 36.859375 -39.390625 C 34.222656 -40.941406 31.332031 -41.71875 28.1875 -41.71875 Z M 28.1875 -41.71875 "/></g></g></g><g fill="#ffffff" fill-opacity="1"><g transform="translate(208.851087, 67.924989)"><g><path d="M 40.46875 -13.46875 L 40.46875 -48.59375 L 48.53125 -48.59375 L 48.53125 0 L 40.46875 0 L 14.578125 -34.984375 L 14.578125 0 L 6.390625 0 L 6.390625 -48.59375 L 14.4375 -48.59375 Z M 40.46875 -13.46875 "/></g></g></g></g></g></g></g></g></svg>